<?xml version="1.0" standalone="no"?>
<!DOCTYPE svg PUBLIC "-//W3C//DTD SVG 20010904//EN"
 "http://www.w3.org/TR/2001/REC-SVG-20010904/DTD/svg10.dtd">
<svg version="1.0" xmlns="http://www.w3.org/2000/svg"
 width="225.000000pt" height="225.000000pt" viewBox="0 0 225.000000 225.000000"
 preserveAspectRatio="xMidYMid meet">
<metadata>
Created by potrace 1.16, written by Peter Selinger 2001-2019
</metadata>
<g transform="translate(0.000000,225.000000) scale(0.100000,-0.100000)"
fill="#000000" stroke="none">
<path d="M1614 1625 c-5 -20 -9 -23 -24 -15 -10 6 -21 10 -24 10 -13 0 -39
-120 -41 -193 -2 -77 -2 -79 24 -88 51 -19 76 -35 124 -80 38 -37 47 -42 45
-25 -2 11 -9 20 -15 19 -7 -2 -10 4 -6 13 4 11 8 12 13 4 6 -9 10 -9 16 2 5 8
16 18 24 21 8 3 -6 6 -31 6 -30 1 -67 11 -104 30 -33 17 -62 28 -65 26 -4 -2
-7 2 -7 10 0 17 23 20 32 5 3 -5 11 -10 18 -10 6 0 2 6 -8 14 -18 13 -17 14
17 14 20 0 42 3 48 7 6 4 18 1 26 -6 8 -6 17 -9 21 -5 3 3 0 6 -8 7 -8 0 0 7
16 14 38 18 25 18 -45 2 -30 -7 -66 -10 -80 -6 -14 4 -20 7 -14 8 7 1 14 10
17 22 3 12 10 18 15 15 5 -3 9 2 8 11 -1 12 9 20 29 24 29 6 29 7 4 8 -26 1
-27 3 -23 54 2 28 6 64 9 80 6 34 -2 36 -11 2z"/>
<path d="M1289 1353 c-12 -15 -12 -16 4 -10 13 5 17 2 15 -11 -2 -10 3 -16 10
-14 7 1 22 -2 32 -8 25 -14 27 -42 3 -33 -15 5 -14 3 2 -10 24 -19 35 -13 35
19 0 14 6 24 14 24 21 0 29 -17 11 -24 -8 -3 -12 -12 -9 -20 4 -11 -3 -19 -21
-26 -14 -5 -24 -14 -20 -19 3 -6 17 -4 33 5 32 17 68 18 77 3 11 -16 0 -20
-26 -10 -18 6 -30 5 -44 -5 -17 -13 -14 -19 8 -15 14 2 7 -18 -10 -28 -17 -10
-16 -10 2 -11 17 -1 15 -5 -12 -29 -18 -15 -33 -32 -33 -38 0 -6 -3 -13 -7
-16 -5 -2 -2 -2 5 -1 6 2 12 -4 12 -13 0 -13 3 -13 15 -3 13 11 13 15 3 21
-10 7 -9 13 7 28 14 15 24 18 35 11 13 -8 13 -10 -2 -10 -23 0 -32 -18 -18
-35 17 -20 53 11 40 35 -5 10 -6 21 -2 25 4 5 1 5 -5 1 -8 -4 -13 -1 -13 8 0
11 10 16 28 17 l27 1 -25 7 c-14 4 -26 15 -28 24 -3 14 2 17 25 15 25 -3 28 0
29 25 1 15 -3 30 -7 33 -5 3 -9 1 -9 -5 0 -5 -8 -8 -17 -7 -13 2 -18 12 -18
37 0 29 -3 34 -21 32 -14 -2 -24 4 -27 17 -3 11 -13 20 -23 20 -16 0 -16 -1 2
-15 10 -8 16 -15 12 -16 -25 -5 -34 -3 -47 9 -12 12 -12 15 0 23 11 7 9 9 -7
9 -12 0 -28 -8 -35 -17z"/>
<path d="M1062 1197 c-12 -13 -22 -27 -22 -33 0 -5 5 -1 11 9 5 9 14 17 19 17
14 0 12 -34 -2 -48 -9 -9 -9 -12 -1 -12 7 0 11 -16 10 -42 -2 -41 -3 -42 -42
-50 -22 -5 -51 -5 -66 1 -22 7 -31 5 -48 -10 -12 -11 -21 -30 -21 -42 0 -29
-14 -49 -30 -45 -8 2 -14 -3 -15 -11 0 -16 -42 -49 -65 -52 -48 -5 -60 1 -60
32 0 17 5 39 10 50 8 13 7 30 0 57 -10 32 -16 37 -41 36 -16 0 -32 -4 -36 -7
-6 -7 -1 -8 40 -11 12 0 22 -7 22 -16 0 -19 -55 -17 -70 3 -5 7 -17 11 -27 9
-18 -3 -34 -52 -20 -61 15 -10 21 -52 12 -77 -18 -45 -99 -39 -85 7 3 10 -1
32 -10 49 -17 32 -16 82 2 115 9 15 8 25 -3 40 -13 18 -14 18 -14 -8 0 -15 -4
-27 -8 -27 -4 0 -6 -30 -5 -67 2 -36 -1 -71 -6 -77 -4 -6 -11 -20 -14 -31 -7
-19 -6 -19 7 -2 18 23 22 22 36 -13 7 -16 19 -30 26 -30 7 0 38 -12 69 -26 41
-20 58 -24 68 -15 8 6 17 8 21 4 4 -4 11 -1 16 7 6 10 14 11 32 3 18 -8 29 -6
51 9 20 14 27 16 27 6 0 -8 -6 -20 -12 -27 -7 -8 2 -3 20 9 29 22 46 40 22 25
-5 -3 -15 -3 -22 1 -7 5 -5 11 7 21 11 7 15 13 10 13 -4 0 0 9 9 19 18 20 51
18 39 -3 -3 -6 -2 -8 2 -3 5 4 18 1 30 -7 38 -25 89 -29 125 -11 23 12 45 15
72 11 23 -4 38 -2 38 4 0 5 7 10 16 10 14 0 14 -3 4 -15 -10 -12 -9 -15 4 -15
10 0 15 -4 11 -10 -4 -6 -15 -6 -31 0 -38 15 -76 12 -117 -9 -28 -14 -33 -20
-21 -25 23 -9 36 -7 30 3 -7 10 27 21 67 21 33 0 36 -17 5 -30 -13 -5 -17 -9
-8 -9 9 -1 16 -12 16 -27 3 -35 32 -64 63 -63 l26 2 -25 4 c-54 9 -69 80 -24
110 22 14 29 15 47 3 21 -13 22 -12 4 7 -10 11 -20 30 -22 42 -3 11 -7 30 -9
41 -4 14 0 20 14 20 27 0 34 18 8 22 -41 6 -31 26 13 26 28 1 46 6 51 16 5 9
16 16 23 16 8 0 15 5 15 10 0 6 -7 10 -15 10 -8 0 -15 -4 -15 -10 0 -5 -10
-14 -21 -21 -20 -10 -21 -9 -16 10 3 15 1 21 -6 18 -7 -2 -11 -11 -9 -21 2
-12 -5 -16 -26 -16 -16 0 -37 -9 -47 -20 -17 -18 -17 -20 -2 -14 10 3 17 1 17
-5 0 -6 -5 -11 -10 -11 -6 0 -8 -11 -4 -25 4 -18 1 -27 -10 -31 -24 -9 -30 1
-11 20 15 15 15 16 0 16 -9 0 -15 6 -14 13 4 32 -2 61 -9 49 -10 -14 -42 -6
-42 12 -4 109 -4 136 1 136 18 0 41 -41 35 -65 -4 -14 -2 -25 4 -25 20 0 11
65 -10 78 -27 16 -41 53 -28 70 19 22 -8 13 -30 -11z"/>
<path d="M1600 1119 c-19 -3 -27 -7 -17 -8 9 0 17 -5 17 -11 0 -12 26 -14 33
-2 2 4 2 2 1 -5 -2 -7 3 -10 12 -6 7 3 14 1 14 -5 0 -13 -32 -25 -39 -14 -3 4
-22 2 -41 -5 -30 -10 -34 -18 -7 -14 10 1 9 -17 -2 -23 -5 -4 -11 -1 -13 6 -3
9 -10 7 -24 -7 -15 -15 -16 -18 -3 -13 16 6 39 -8 39 -24 0 -15 -48 -8 -54 8
-4 9 -13 14 -21 10 -8 -3 -15 -1 -15 5 0 6 -7 9 -15 5 -24 -9 -18 33 8 55 20
19 20 19 1 10 -29 -14 -40 -31 -42 -64 -2 -24 1 -27 19 -22 12 4 31 0 47 -11
20 -14 42 -18 84 -15 57 3 58 3 75 -34 15 -31 15 -37 3 -45 -8 -5 -17 -7 -21
-4 -4 2 -9 -3 -13 -11 -3 -8 -10 -15 -16 -15 -6 0 -18 -7 -26 -15 -18 -17 -59
-11 -88 14 -11 9 -16 11 -12 4 4 -8 -3 -15 -20 -19 -32 -8 -14 -24 29 -24 15
0 27 -6 27 -12 0 -9 4 -8 10 2 8 13 10 13 10 -2 0 -20 -26 -48 -45 -48 -8 0
-17 -4 -20 -10 -11 -18 11 -11 50 16 39 26 53 22 56 -16 0 -9 3 -10 5 -4 3 7
15 10 27 8 12 -2 15 -1 7 2 -17 7 -40 34 -40 47 0 4 5 5 12 1 7 -4 8 -3 4 4
-8 14 57 57 103 67 20 4 29 10 22 14 -8 5 -3 11 12 18 14 7 29 8 38 2 23 -14
30 -10 17 10 -7 11 -16 17 -22 14 -5 -3 -6 -1 -2 6 4 6 3 18 -4 26 -7 8 -7 15
-1 19 6 4 7 14 4 23 -5 12 -3 14 7 8 7 -4 2 6 -11 24 -28 38 -34 39 -36 4 -2
-25 -1 -26 8 -8 7 16 8 14 3 -10 -3 -16 -5 -45 -5 -62 1 -23 -4 -33 -14 -33
-8 0 -15 -5 -15 -12 0 -6 -9 0 -20 13 -11 13 -25 30 -32 38 -9 11 -6 19 17 38
25 22 26 27 15 48 -7 13 -10 30 -7 38 8 20 -31 34 -73 26z"/>
<path d="M687 790 c-3 -12 -14 -24 -24 -26 -10 -3 -20 -15 -20 -26 -1 -12 -9
-28 -18 -37 -17 -18 -20 -5 -5 33 5 14 6 26 2 26 -4 0 -14 -21 -21 -47 -15
-59 -36 -83 -71 -83 -34 0 -47 15 -53 60 -3 21 -4 17 -2 -12 1 -26 -3 -53 -9
-60 -9 -10 -8 -11 2 -2 8 7 23 9 34 6 15 -4 17 -7 6 -14 -9 -7 -7 -8 7 -3 11
3 50 9 88 12 37 3 67 10 67 14 0 5 -12 7 -27 5 -16 -2 -22 -1 -15 1 7 3 10 8
7 13 -3 5 0 12 6 16 6 3 15 1 19 -6 5 -8 20 -14 34 -15 25 -1 26 1 26 57 0 47
-3 58 -16 58 -14 0 -14 3 -4 15 9 11 10 19 3 26 -7 7 -12 4 -16 -11z"/>
</g>
</svg>
